{"title":"Blade II 2002 720p BDRip x264 AC3-FWOLF","uid":9665331,"size":3150920831,"categoryP":"video","categoryS":"hd___movies","magnet":"?xt=urn:btih:868f4d0c84c7ab69ff7d42e285ecc5ff9ec4cd5f&amp;dn=Blade+II+2002+720p+BDRip+x264+AC3-FWOLF&amp;tr=udp%3A%2F%2Ftracker.openbittorrent.com%3A80&amp;tr=udp%3A%2F%2Fopen.demonii.com%3A1337&amp;tr=udp%3A%2F%2Ftracker.coppersurfer.tk%3A6969&amp;tr=udp%3A%2F%2Fexodus.desync.com%3A6969","seeders":1,"leechers":0,"uploader":"sakhslitsa","files":22,"time":1393368734,"description":" &lt;a href=&quot;http://www.imdb.com/title/tt0187738/&quot; rel=&quot;nofollow&quot; target=&quot;_NEW&quot;&gt;http://www.imdb.com/title/tt0187738/&lt;/a&gt;\n\n\n\nFormat : Matroska\nFormat version : Version 2\nFile size : 2.71 GiB\nDuration : 1h 56mn\nOverall bit rate : 3 316 Kbps\nEncoded date : UTC 2014-02-23 12:08:02\nWriting application : mkvmerge v6.5.0 ('Isn't she lovely') built on Oct 20 2013 12:50:05\nWriting library : libebml v1.3.0 + libmatroska v1.4.1\n\nVideo\nID : 1\nFormat : AVC\nFormat/Info : Advanced Video Codec\nFormat profile : &lt;a class=&quot;__cf_email__&quot; href=&quot;/cdn-cgi/l/email-protection&quot; data-cfemail=&quot;4b03222c230b077f657a&quot;&gt;[email&amp;#160;protected]&lt;/a&gt;&lt;script cf-hash='f9e31' type=&quot;text/javascript&quot;&gt;\n/* &lt;![CDATA[ */!function(){try{var t=&quot;currentScript&quot;in document?document.currentScript:function(){for(var t=document.getElementsByTagName(&quot;script&quot;),e=t.length;e--;)if(t[e].getAttribute(&quot;cf-hash&quot;))return t[e]}();if(t&amp;&amp;t.previousSibling){var e,r,n,i,c=t.previousSibling,a=c.getAttribute(&quot;data-cfemail&quot;);if(a){for(e=&quot;&quot;,r=parseInt(a.substr(0,2),16),n=2;a.length-n;n+=2)i=parseInt(a.substr(n,2),16)^r,e+=String.fromCharCode(i);e=document.createTextNode(e),c.parentNode.replaceChild(e,c)}}}catch(u){}}();/* ]]&gt; */&lt;/script&gt;\nFormat settings, CABAC : Yes\nFormat settings, ReFrames : 8 frames\nCodec ID : V_MPEG4/ISO/AVC\nDuration : 1h 56mn\nBit rate : 2 869 Kbps\nWidth : 1 280 pixels\nHeight : 720 pixels\nDisplay aspect ratio : 16:9\nFrame rate mode : Constant\nFrame rate : 23.976 fps\nColor space : YUV\nChroma subsampling : 4:2:0\nBit depth : 8 bits\nScan type : Progressive\nBits/(Pixel*Frame) : 0.130\nStream size : 2.29 GiB (84%)\nWriting library : x264 core 138 r2358 9e941d1\nLanguage : English\nDefault : Yes\nForced : No\n\nAudio\nID : 2\nFormat : AC-3\nFormat/Info : Audio Coding 3\nMode extension : CM (complete main)\nFormat settings, Endianness : Big\nCodec ID : A_AC3\nDuration : 1h 56mn\nBit rate mode : Constant\nBit rate : 448 Kbps\nChannel(s) : 6 channels\nChannel positions : Front: L C R, Side: L R, LFE\nSampling rate : 48.0 KHz\nBit depth : 16 bits\nCompression mode : Lossy\nStream size : 375 MiB (14%)\nLanguage : English\nDefault : Yes\nForced : No\n\nMenu\n00:00:00.000 : en:00:00:00.000\n00:05:03.136 : en:00:05:03.136\n00:08:45.358 : en:00:08:45.358\n00:10:58.658 : en:00:10:58.658\n00:17:00.645 : en:00:17:00.645\n00:23:12.891 : en:00:23:12.891\n00:27:50.377 : en:00:27:50.377\n00:28:37.090 : en:00:28:37.090\n00:30:03.885 : en:00:30:03.885\n00:33:27.631 : en:00:33:27.631\n00:52:03.537 : en:00:52:03.537\n00:55:23.445 : en:00:55:23.445\n00:58:13.615 : en:00:58:13.615\n00:59:13.884 : en:00:59:13.884\n01:03:29.764 : en:01:03:29.764\n01:08:14.424 : en:01:08:14.424\n01:14:30.257 : en:01:14:30.257\n01:18:51.727 : en:01:18:51.727\n01:22:00.791 : en:01:22:00.791\n01:32:09.232 : en:01:32:09.232\n01:38:02.752 : en:01:38:02.752\n01:46:24.378 : en:01:46:24.378\n01:48:28.460 : en:01:48:28.460\n01:49:13.964 : en:01:49:13.964\n\n\nEncoded....................FWOLF\n\nSource.....................Blu-ray CEE 1080p AVC DD5.1 (Thanks!)\n\nSample.....................Yes\n\nSubs (VobSub)..............English,Portuguese,Czech,Hungarian,Russian,German\nSpanish,Japanese\n\nSubs.......................(srt) ...English,Greek\n\n\nGreetz To: PsiX | Blacksheep | CFR | tomcat-12...\n.....and all P2P Encoders and Groups.....","torrent":{"xt":"urn:btih:868f4d0c84c7ab69ff7d42e285ecc5ff9ec4cd5f","amp;dn":"Blade+II+2002+720p+BDRip+x264+AC3-FWOLF","amp;tr":["udp%3A%2F%2Ftracker.openbittorrent.com%3A80","udp%3A%2F%2Fopen.demonii.com%3A1337","udp%3A%2F%2Ftracker.coppersurfer.tk%3A6969","udp%3A%2F%2Fexodus.desync.com%3A6969"],"infoHash":"868f4d0c84c7ab69ff7d42e285ecc5ff9ec4cd5f","infoHashBuffer":{"type":"Buffer","data":[134,143,77,12,132,199,171,105,255,125,66,226,133,236,197,255,158,196,205,95]},"announce":[],"urlList":[]}}